<svg fill="#fff" xmlns="http://www.w3.org/2000/svg"  viewBox="0 0 48 48" width="24px" height="24px"><path d="M 24 4 C 12.972292 4 4 12.972292 4 24 C 4 35.027708 12.972292 44 24 44 C 24.178976 44 24.360693 43.997688 24.544922 43.992188 A 1.50015 1.50015 0 1 0 24.455078 40.994141 C 24.307303 40.99858 24.155024 41 24 41 C 14.593708 41 7 33.406292 7 24 C 7 14.593708 14.593708 7 24 7 C 32.625591 7 39.723716 13.398831 40.845703 21.701172 A 1.500848 1.500848 0 0 0 43.820312 21.298828 C 42.500301 11.531169 34.112409 4 24 4 z M 24 10 C 16.285455 10 10 16.285455 10 24 C 10 28.253357 11.912754 32.075586 14.914062 34.640625 A 1.5002963 1.5002963 0 1 0 16.863281 32.359375 C 14.49859 30.338414 13 27.356643 13 24 C 13 17.906545 17.906545 13 24 13 C 25.072613 13 26.103961 13.152836 27.080078 13.4375 A 1.5003905 1.5003905 0 1 0 27.919922 10.556641 C 26.674039 10.193305 25.357387 10 24 10 z M 32.470703 13.986328 A 1.50015 1.50015 0 0 0 31.439453 14.439453 L 22.939453 22.939453 A 1.50015 1.50015 0 1 0 25.060547 25.060547 L 33.560547 16.560547 A 1.50015 1.50015 0 0 0 32.470703 13.986328 z M 36.423828 22.001953 A 1.50015 1.50015 0 0 0 35.373047 22.509766 C 35.373047 22.509766 33.551485 24.576164 31.734375 27.425781 C 29.917265 30.275399 28 33.898509 28 37.5 C 28 42.176657 31.823343 46 36.5 46 C 41.176657 46 45 42.176657 45 37.5 C 45 33.898509 43.082735 30.275399 41.265625 27.425781 C 39.448515 24.576164 37.626953 22.509766 37.626953 22.509766 A 1.50015 1.50015 0 0 0 36.423828 22.001953 z M 36.5 26.015625 C 37.123079 26.778642 37.615781 27.284867 38.734375 29.039062 C 39.587759 30.377352 40.412932 31.906095 41.021484 33.40625 C 40.423641 33.16679 39.749299 33 39 33 C 37.5 33 36.380859 33.697266 35.505859 34.197266 C 34.630859 34.697266 34 35 33.5 35 C 32.887929 35 32.194805 34.491022 31.724609 34.083984 C 32.343804 32.371915 33.282794 30.580352 34.265625 29.039062 C 35.384219 27.284868 35.876921 26.778642 36.5 26.015625 z M 39 36 C 39.5 36 40.295976 36.333385 40.917969 36.748047 C 41.539961 37.162708 41.939453 37.560547 41.939453 37.560547 A 1.50015 1.50015 0 0 0 41.994141 37.613281 C 41.933858 40.614879 39.517013 43 36.5 43 C 33.444657 43 31 40.555343 31 37.5 C 31 37.449515 31.010381 37.393066 31.011719 37.341797 C 31.699218 37.713903 32.522543 38 33.5 38 C 35 38 36.119141 37.302734 36.994141 36.802734 C 37.869141 36.302734 38.5 36 39 36 z"/></svg>