<svg width="48" height="48" viewBox="0 0 48 48" fill="none" xmlns="http://www.w3.org/2000/svg">
<path d="M24 4C12.954 4 4 12.954 4 24C4 35.046 12.954 44 24 44C35.046 44 44 35.046 44 24C44 12.954 35.046 4 24 4Z" fill="url(#paint0_radial)"/>
<path d="M21 10C19.343 10 18 11.343 18 13C18 14.657 19.343 16 21 16C22.657 16 24 14.657 24 13C24 11.343 22.657 10 21 10Z" fill="url(#paint1_radial)"/>
<path d="M13 22C11.895 22 11 22.895 11 24C11 25.105 11.895 26 13 26C14.105 26 15 25.105 15 24C15 22.895 14.105 22 13 22Z" fill="url(#paint2_radial)"/>
<path d="M36.5 20C35.672 20 35 20.672 35 21.5C35 22.328 35.672 23 36.5 23C37.328 23 38 22.328 38 21.5C38 20.672 37.328 20 36.5 20Z" fill="url(#paint3_radial)"/>
<path d="M3.675 34H2C0.896 34 0 34.896 0 36C0 37.104 0.896 38 2 38H5C6.104 38 7 38.896 7 40C7 41.104 6.104 42 5 42C3.896 42 3 42.896 3 44C3 45.104 3.896 46 5 46H22C13.801 46 6.763 41.061 3.675 34Z" fill="#199BE2"/>
<path d="M40 42H33.964C30.625 44.501 26.493 46 22 46H40C40.8 46 41.485 45.527 41.805 44.848H41.806L41.807 44.846C41.864 44.723 41.911 44.596 41.942 44.461C41.944 44.453 41.948 44.445 41.95 44.438C41.98 44.296 42 44.15 42 44C42 42.896 41.104 42 40 42Z" fill="#199BE2"/>
<path d="M28 42C26.896 42 26 41.104 26 40C26 38.896 26.896 38 28 38H34C35.104 38 36 37.104 36 36C36 34.896 35.104 34 34 34H25H22H18C16.896 34 16 33.104 16 32C16 30.898 16.89 30.006 17.99 30.001H20C21.104 30.001 22 29.105 22 28.001V28C22 26.896 21.104 26 20 26H5.99999V26.001C4.89599 26.001 3.99999 26.897 3.99999 28.001C3.99999 29.105 4.89599 30.001 5.99999 30.001V30H7.99999C9.10499 30 9.99999 30.895 9.99999 32C9.99999 33.105 9.10499 34 7.99999 34H3.67499C6.76299 41.061 13.801 46 22 46C26.492 46 30.625 44.501 33.964 42H28Z" fill="#35C1F1"/>
<defs>
<radialGradient id="paint0_radial" cx="0" cy="0" r="1" gradientUnits="userSpaceOnUse" gradientTransform="translate(40.31 43.238) scale(43.767)">
<stop stop-color="#6D75D6"/>
<stop offset="0.123" stop-color="#8189DE"/>
<stop offset="0.384" stop-color="#A7ADEC"/>
<stop offset="0.625" stop-color="#C3C7F6"/>
<stop offset="0.838" stop-color="#D3D6FD"/>
<stop offset="1" stop-color="#D9DCFF"/>
</radialGradient>
<radialGradient id="paint1_radial" cx="0" cy="0" r="1" gradientUnits="userSpaceOnUse" gradientTransform="translate(22.0656 14.8756) scale(5.18403)">
<stop offset="0.313" stop-color="#6063E0" stop-opacity="0"/>
<stop offset="1" stop-color="#6063E0"/>
</radialGradient>
<radialGradient id="paint2_radial" cx="0" cy="0" r="1" gradientUnits="userSpaceOnUse" gradientTransform="translate(13.71 25.25) scale(3.456)">
<stop offset="0.313" stop-color="#6063E0" stop-opacity="0"/>
<stop offset="1" stop-color="#6063E0"/>
</radialGradient>
<radialGradient id="paint3_radial" cx="0" cy="0" r="1" gradientUnits="userSpaceOnUse" gradientTransform="translate(37.033 22.438) scale(2.592)">
<stop offset="0.313" stop-color="#6063E0" stop-opacity="0"/>
<stop offset="1" stop-color="#6063E0"/>
</radialGradient>
</defs>
</svg>
