<svg xmlns="http://www.w3.org/2000/svg"  viewBox="0 0 128 128" width="64px" height="64px"><path fill="#fff" d="M36 54h24c11.6 0 21-9.4 21-21s-9.4-21-21-21c-5.1 0-10 1.8-13.8 5.2-1.2 1.1-1.4 3-.3 4.2 1.1 1.2 3 1.4 4.2.3 2.7-2.4 6.2-3.7 9.9-3.7 8.3 0 15 6.7 15 15s-6.7 15-15 15H36c-1.7 0-3 1.3-3 3S34.3 54 36 54zM30 72H4c-1.7 0-3 1.3-3 3s1.3 3 3 3h26c1.7 0 3-1.3 3-3S31.7 72 30 72zM80 72H54c-1.7 0-3 1.3-3 3s1.3 3 3 3h26c8.3 0 15 6.7 15 15s-6.7 15-15 15c-3.5 0-6.9-1.2-9.6-3.4-1.3-1.1-3.2-.9-4.2.4s-.9 3.2.4 4.2c3.8 3.1 8.5 4.8 13.4 4.8 11.6 0 21-9.4 21-21S91.6 72 80 72z"/><path fill="#fff" d="M106 24c-1.7 0-3 1.3-3 3s1.3 3 3 3c8.3 0 15 6.7 15 15s-6.7 15-15 15H14c-1.7 0-3 1.3-3 3s1.3 3 3 3h92c11.6 0 21-9.4 21-21S117.6 24 106 24zM24 48A3 3 0 1 0 24 54 3 3 0 1 0 24 48z"/></svg>